<svg xmlns="http://www.w3.org/2000/svg" width="24" height="24" viewBox="0 0 24 24" fill="currentColor">
  <path d="M5.25 7.25A2.75 2.75 0 0 1 8 4.5h8a2.75 2.75 0 0 1 2.75 2.75v11A2.75 2.75 0 0 1 16 21H8a2.75 2.75 0 0 1-2.75-2.75v-11z"/>
  <circle cx="9.5" cy="12.5" r="1.4" fill="#000" fill-opacity=".4"/>
  <circle cx="14.5" cy="12.5" r="1.4" fill="#000" fill-opacity=".4"/>
  <path d="M10 15.75h4a.75.75 0 0 1 0 1.5h-4a.75.75 0 0 1 0-1.5z" fill="#000" fill-opacity=".4"/>
  <path d="M12 4.5V3.25a.75.75 0 0 1 1.5 0V4.5H12zm-3.25-.5a.75.75 0 0 1 .75-.75h4.5a.75.75 0 0 1 0 1.5h-4.5a.75.75 0 0 1-.75-.75z"/>
</svg>
